<svg width="75" height="71" viewBox="0 0 75 71" fill="none" xmlns="http://www.w3.org/2000/svg">
<g clip-path="url(#clip0_2_959)">
<path d="M20.4126 31.8858C20.4126 34.4838 22.5439 36.6095 25.1489 36.6095C27.754 36.6095 29.8853 34.4838 29.8853 31.8858C29.8853 29.2877 27.754 27.162 25.1489 27.162C22.5439 27.162 20.4126 29.2877 20.4126 31.8858ZM27.5171 31.8858C27.5171 33.1848 26.4515 34.2476 25.1489 34.2476C23.8464 34.2476 22.7808 33.1848 22.7808 31.8858C22.7808 30.5867 23.8464 29.5239 25.1489 29.5239C26.4515 29.5239 27.5171 30.5867 27.5171 31.8858ZM29.8853 25.9811H16.8603V37.7904H33.4376V35.4285C33.4376 34.72 33.9112 34.2476 34.6217 34.2476C35.3322 34.2476 35.8058 34.72 35.8058 35.4285V37.7904C35.8058 39.0894 34.7401 40.1523 33.4376 40.1523H16.8603C15.5578 40.1523 14.4921 39.0894 14.4921 37.7904V25.9811C14.4921 24.6821 15.5578 23.6193 16.8603 23.6193H29.8853C30.5958 23.6193 31.0694 24.0916 31.0694 24.8002C31.0694 25.5087 30.5958 25.9811 29.8853 25.9811ZM36.9899 46.0569H13.308C9.99254 46.0569 7.38753 43.4589 7.38753 40.1523V23.6193C7.38753 22.9107 7.86117 22.4383 8.57163 22.4383C9.28208 22.4383 9.75572 22.9107 9.75572 23.6193V40.1523C9.75572 42.1598 11.295 43.695 13.308 43.695H36.9899C39.0029 43.695 40.5422 42.1598 40.5422 40.1523V36.6095C40.5422 35.9009 41.0158 35.4285 41.7263 35.4285C42.4367 35.4285 42.9104 35.9009 42.9104 36.6095V39.2075L57.3563 24.8002C58.0668 24.0916 58.422 23.265 58.422 22.3202V12.8728C58.422 12.1642 58.8956 11.6919 59.6061 11.6919C60.3166 11.6919 60.7902 12.1642 60.7902 12.8728V22.3202C60.7902 23.8554 60.1981 25.2726 59.1325 26.4535C59.1325 26.4535 59.1325 26.5716 59.014 26.5716L41.2526 44.2855C40.0685 45.3483 38.6476 46.0569 36.9899 46.0569ZM2.41434 22.7919C2.29593 22.4376 2.41434 22.0834 2.65115 21.7291L2.88797 21.4929C3.00638 21.3748 3.2432 21.2567 3.59843 21.2567H30.9503C32.016 21.2567 32.8449 21.8472 33.2001 22.91L37.1076 34.6012C37.226 34.9555 37.5813 35.3098 37.9365 35.4279C38.2917 35.546 38.7654 35.4279 39.0022 35.1917L55.5795 19.8396C55.8163 19.6034 55.9347 19.2491 55.9347 19.013V12.3998L60.3159 8.03032C60.5527 7.67604 60.6711 7.43985 60.6711 7.08557V6.02274C60.6711 2.71614 57.9477 0 54.6322 0H30.4767C27.5165 0 24.6746 1.06284 22.4249 2.83423L1.46571 19.6034C1.22889 19.8396 0.87366 20.0758 0.75525 20.4301C0.0447933 21.2567 -0.192025 22.4376 0.163203 23.5005L3.8339 34.6012C4.07071 35.0736 4.54435 35.4279 5.01799 35.4279C5.1364 35.4279 5.25481 35.4279 5.37322 35.3098C5.96527 35.0736 6.32049 34.4831 6.08367 33.7746L2.41434 22.7919ZM23.8471 4.72304C25.7417 3.18783 28.1099 2.36118 30.4781 2.36118H54.6336C56.6465 2.36118 58.3043 4.01448 58.3043 6.02206V6.61253L53.9231 10.982C53.6863 11.2181 53.5679 11.4543 53.5679 11.8086V18.4218L38.766 32.1206L35.4506 22.0827C34.8585 20.1932 32.964 18.8942 30.951 18.8942H6.08503L23.8471 4.72304ZM36.0433 19.6027C35.6881 19.1304 35.6881 18.3037 36.2801 17.9494L52.8574 4.95923C53.3311 4.60495 54.1599 4.60495 54.5152 5.19541C54.8704 5.78588 54.8704 6.49443 54.2783 6.84871L37.701 19.8389C37.4642 19.957 37.2274 20.0751 36.9906 20.0751C36.6353 20.0751 36.2801 19.957 36.0433 19.6027ZM73.6975 40.1509H60.6725C60.1988 40.1509 59.7252 40.3871 59.6068 40.8595C59.4884 41.0956 57.4754 46.0556 56.4097 50.7793H46.4633V44.8746C46.4633 44.1661 45.9897 43.6937 45.2792 43.6937C44.5688 43.6937 44.0951 44.1661 44.0951 44.8746V51.9602C44.0951 53.6135 41.1349 55.503 36.9906 55.503C32.8462 55.503 29.886 53.6135 29.886 51.9602V49.5983C29.886 48.8898 29.4124 48.4174 28.7019 48.4174C27.9915 48.4174 27.5178 48.8898 27.5178 49.5983V61.4076C27.5178 64.7142 31.6621 67.3123 36.9906 67.3123C42.319 67.3123 46.4633 64.7142 46.4633 61.4076V60.2267H60.6725C62.6854 60.2267 64.2247 58.101 64.2247 55.503C64.2247 52.9049 62.6854 50.7793 60.6725 50.7793H58.8963C59.6068 47.4727 60.9093 43.9299 61.5013 42.5128H68.3691C67.3034 45.1108 65.4088 50.425 65.4088 55.503C65.4088 60.581 67.3034 65.8952 68.3691 68.4932H61.6197C61.1461 67.0761 60.3172 64.3599 59.6068 62.2343C59.37 61.6438 58.6595 61.2895 58.0674 61.5257C57.4754 61.7619 57.1202 62.4705 57.357 63.0609C58.3043 65.8952 59.6068 70.0284 59.6068 70.1465C59.7252 70.6189 60.1988 70.9732 60.7909 70.9732H73.8159C74.5264 70.9732 75 70.5008 75 69.7922V41.3312C74.8816 40.6226 74.408 40.1509 73.6975 40.1509ZM61.8566 55.503C61.8566 56.9201 61.1461 57.8648 60.6725 57.8648H46.4633C46.4633 57.1563 45.9897 56.6839 45.2792 56.6839C44.5688 56.6839 44.0951 57.1563 44.0951 57.8648V61.4076C44.0951 63.0609 41.1349 64.9504 36.9906 64.9504C32.8462 64.9504 29.886 63.0609 29.886 61.4076V55.8573C31.6621 57.0382 34.1487 57.8648 36.9906 57.8648C41.6085 57.8648 45.3976 55.8573 46.2265 53.1411H60.6725C61.1461 53.1411 61.8566 54.0859 61.8566 55.503ZM72.5134 68.4932H70.8557C70.0268 66.6037 67.777 60.8172 67.777 55.503C67.777 50.3069 70.0268 44.4023 70.8557 42.5128H72.5134V68.4932Z" fill="url(#paint0_linear_2_959)"/>
</g>
<defs>
<linearGradient id="paint0_linear_2_959" x1="37.5" y1="0" x2="37.5" y2="70.9732" gradientUnits="userSpaceOnUse">
<stop stop-color="#99DD49"/>
<stop offset="1" stop-color="#80C430"/>
</linearGradient>
<clipPath id="clip0_2_959">
<rect width="75" height="71" fill="white"/>
</clipPath>
</defs>
</svg>
