<svg width="70" height="71" viewBox="0 0 70 71" fill="none" xmlns="http://www.w3.org/2000/svg">
<g clip-path="url(#clip0_2_961)">
<path d="M69.9999 23.5964V10.9084C69.9988 10.1428 69.6357 9.42288 69.0209 8.9666C66.1088 6.94991 62.9121 5.37874 59.536 4.3055C56.3291 3.21067 53.0371 2.38302 49.6939 1.83129C46.4509 1.28873 43.1783 0.941212 39.8937 0.789805C38.3722 0.705215 36.7753 0.665344 35 0.665344C33.2246 0.665344 31.6277 0.705215 30.1169 0.786034C26.8325 0.937441 23.5598 1.28496 20.3168 1.82752C16.9736 2.37925 13.6816 3.20683 10.4747 4.30173C7.09486 5.37555 3.89444 6.9478 0.978992 8.96656C0.364234 9.42292 0.00108966 10.1427 0 10.9083V23.5964C0 24.2364 0.254317 24.8507 0.706897 25.3032C1.15948 25.7558 1.77371 26.0101 2.41379 26.0101V63.4239C1.77371 63.4239 1.15948 63.6783 0.706897 64.1308C0.254317 64.5834 0 65.1976 0 65.8377V68.2515C0 68.8916 0.254317 69.5058 0.706897 69.9584C1.15948 70.411 1.77371 70.6653 2.41379 70.6653H67.5862C68.2263 70.6653 68.8405 70.411 69.2931 69.9584C69.7457 69.5058 70 68.8916 70 68.2515V65.8377C70 65.1976 69.7457 64.5834 69.2931 64.1308C68.8405 63.6783 68.2263 63.4239 67.5862 63.4239V26.0101C68.2263 26.0101 68.8405 25.7558 69.2931 25.3032C69.7457 24.8507 69.9999 24.2364 69.9999 23.5964ZM68.3103 9.93695L67.5921 10.9025V23.5964H60.3447V7.16467C62.9126 8.08816 65.3475 9.34619 67.5861 10.9061L68.3103 9.93695ZM57.931 23.5964H50.6896V4.46398C53.1401 4.92465 55.5592 5.54157 57.931 6.31047V23.5964ZM48.2758 23.5964H41.0344V3.26674C43.4967 3.42138 45.9234 3.68215 48.2758 4.04529V23.5964ZM38.6206 3.14536V23.5964H31.3792V3.14536C33.6443 3.05592 36.3555 3.05592 38.6206 3.14536ZM28.9654 23.5964H21.7241V4.04467C24.0765 3.6826 26.5031 3.42076 28.9654 3.26612V23.5964ZM19.3103 23.5964H12.0689V6.3095C14.4406 5.54065 16.8598 4.92371 19.3103 4.46302V23.5964ZM2.41371 10.9073C4.65233 9.34702 7.08723 8.08881 9.65509 7.16591V23.5963H2.41371V10.9073ZM67.5861 68.2521H2.41371V65.8383H67.5861V68.2521ZM45.862 45.3211V63.4245H36.2068V45.3211H45.862ZM33.793 63.4245H24.1378V45.3211H33.793V63.4245ZM65.1723 63.4245H57.931V61.0107H59.1378C60.2882 61.0134 61.3711 60.4698 62.0559 59.5452C62.7407 58.6212 62.9455 57.4267 62.6076 56.327C62.2704 55.2279 61.4304 54.3539 60.3447 53.9736C60.3447 53.9063 60.3507 53.8384 60.3507 53.7694C60.3507 52.4758 59.6605 51.2807 58.5403 50.6337C57.4202 49.9872 56.0398 49.9872 54.9196 50.6337C53.7995 51.2808 53.1093 52.4758 53.1093 53.7694C53.1093 53.8384 53.1093 53.9057 53.1152 53.9736C52.0312 54.3535 51.1918 55.2258 50.8534 56.3233C50.5151 57.4213 50.7176 58.6142 51.3998 59.5387C52.0813 60.4633 53.1615 61.0096 54.3104 61.0107H55.5173V63.4245H48.2759V45.3211C48.2759 44.681 48.0216 44.0668 47.569 43.6142C47.1164 43.1616 46.5022 42.9073 45.8621 42.9073H24.138C23.4979 42.9073 22.8836 43.1616 22.4311 43.6142C21.9785 44.0668 21.7242 44.681 21.7242 45.3211V63.4245H14.4828V61.0107H15.6897C16.84 61.0134 17.9229 60.4698 18.6078 59.5452C19.2926 58.6212 19.4973 57.4267 19.1595 56.327C18.8222 55.2279 17.9822 54.3539 16.8966 53.9736V53.7694C16.8966 52.4758 16.2064 51.2807 15.0862 50.6337C13.9661 49.9872 12.5857 49.9872 11.4655 50.6337C10.3454 51.2808 9.6552 52.4758 9.6552 53.7694C9.6552 53.8384 9.6552 53.9057 9.66113 53.9736C8.57654 54.354 7.73658 55.2269 7.39879 56.3255C7.06099 57.4241 7.26463 58.6181 7.94782 59.5421C8.63101 60.4666 9.71293 61.0118 10.8622 61.0107H12.0691V63.4245H4.82768V26.0107H65.1725L65.1723 63.4245ZM55.6972 54.3895C55.4665 54.0172 55.4552 53.5495 55.6686 53.167C55.8814 52.7844 56.285 52.5468 56.723 52.5468C57.1611 52.5468 57.5646 52.7844 57.7774 53.167C57.9903 53.5495 57.9795 54.0172 57.7489 54.3895C57.5091 54.7914 57.5237 55.2952 57.7855 55.6831C58.0468 56.0705 58.5091 56.272 58.9714 56.1998C59.3071 56.1438 59.6503 56.2322 59.9175 56.4428C60.1848 56.6535 60.3507 56.9676 60.3739 57.3071C60.3976 57.646 60.2769 57.98 60.0414 58.2257C59.806 58.4709 59.4779 58.6061 59.1379 58.5969H54.3103C53.6438 58.5969 53.1034 58.0565 53.1034 57.39C53.1034 56.7236 53.6438 56.1831 54.3103 56.1831C54.368 56.1864 54.4251 56.1939 54.4816 56.2047C54.9428 56.2737 55.4019 56.0705 55.6616 55.6837C55.9213 55.2968 55.9353 54.7952 55.6972 54.3944V54.3895ZM12.2489 54.3895C12.0183 54.0172 12.007 53.5495 12.2203 53.167C12.4332 52.7844 12.8367 52.5468 13.2747 52.5468C13.7128 52.5468 14.1163 52.7844 14.3292 53.167C14.542 53.5495 14.5312 54.0172 14.3006 54.3895C14.0608 54.7914 14.0754 55.2952 14.3372 55.6831C14.5985 56.0705 15.0608 56.272 15.5231 56.1998C15.8588 56.1438 16.202 56.2322 16.4692 56.4428C16.7365 56.6535 16.9024 56.9676 16.9256 57.3071C16.9493 57.646 16.8286 57.98 16.5932 58.2257C16.3577 58.4709 16.0296 58.6061 15.6896 58.5969H10.862C10.1955 58.5969 9.65512 58.0565 9.65512 57.39C9.65512 56.7236 10.1955 56.1831 10.862 56.1831C10.9197 56.1864 10.9768 56.1939 11.0334 56.2047C11.4946 56.2737 11.9536 56.0705 12.2133 55.6837C12.473 55.2968 12.487 54.7952 12.2489 54.3944V54.3895Z" fill="url(#paint0_linear_2_961)"/>
<path d="M16.8964 30.8378H9.655C9.01492 30.8378 8.40069 31.0921 7.94811 31.5447C7.49553 31.9972 7.24121 32.6115 7.24121 33.2516V38.0791C7.24121 38.7192 7.49553 39.3335 7.94811 39.786C8.40069 40.2386 9.01492 40.4929 9.655 40.4929H16.8964C17.5365 40.4929 18.1507 40.2386 18.6033 39.786C19.0559 39.3335 19.3102 38.7192 19.3102 38.0791V33.2516C19.3102 32.6115 19.0559 31.9972 18.6033 31.5447C18.1507 31.0921 17.5365 30.8378 16.8964 30.8378ZM16.8964 38.0791H9.655V33.2516H16.8964V38.0791Z" fill="url(#paint1_linear_2_961)"/>
<path d="M31.3783 30.8378H24.1369C23.4969 30.8378 22.8826 31.0921 22.43 31.5447C21.9775 31.9972 21.7231 32.6115 21.7231 33.2516V38.0791C21.7231 38.7192 21.9775 39.3335 22.43 39.786C22.8826 40.2386 23.4969 40.4929 24.1369 40.4929H31.3783C32.0184 40.4929 32.6326 40.2386 33.0852 39.786C33.5378 39.3335 33.7921 38.7192 33.7921 38.0791V33.2516C33.7921 32.6115 33.5378 31.9972 33.0852 31.5447C32.6326 31.0921 32.0184 30.8378 31.3783 30.8378ZM31.3783 38.0791H24.1369V33.2516H31.3783V38.0791Z" fill="url(#paint2_linear_2_961)"/>
<path d="M45.8627 30.8378H38.6213C37.9812 30.8378 37.367 31.0921 36.9144 31.5447C36.4618 31.9972 36.2075 32.6115 36.2075 33.2516V38.0791C36.2075 38.7192 36.4618 39.3335 36.9144 39.786C37.367 40.2386 37.9812 40.4929 38.6213 40.4929H45.8627C46.5028 40.4929 47.117 40.2386 47.5696 39.786C48.0222 39.3335 48.2765 38.7192 48.2765 38.0791V33.2516C48.2765 32.6115 48.0222 31.9972 47.5696 31.5447C47.117 31.0921 46.5028 30.8378 45.8627 30.8378ZM45.8627 38.0791H38.6213V33.2516H45.8627V38.0791Z" fill="url(#paint3_linear_2_961)"/>
<path d="M50.6895 33.2516V38.0791C50.6895 38.7192 50.9438 39.3335 51.3963 39.786C51.8489 40.2386 52.4632 40.4929 53.1032 40.4929H60.3446C60.9847 40.4929 61.5989 40.2386 62.0515 39.786C62.5041 39.3335 62.7584 38.7192 62.7584 38.0791V33.2516C62.7584 32.6115 62.5041 31.9972 62.0515 31.5447C61.5989 31.0921 60.9847 30.8378 60.3446 30.8378H53.1032C52.4632 30.8378 51.8489 31.0921 51.3963 31.5447C50.9438 31.9972 50.6895 32.6115 50.6895 33.2516ZM60.3446 38.0791H53.1032V33.2516H60.3446V38.0791Z" fill="url(#paint4_linear_2_961)"/>
</g>
<defs>
<linearGradient id="paint0_linear_2_961" x1="35" y1="0.665344" x2="35" y2="70.6653" gradientUnits="userSpaceOnUse">
<stop stop-color="#99DD49"/>
<stop offset="1" stop-color="#80C430"/>
</linearGradient>
<linearGradient id="paint1_linear_2_961" x1="13.2757" y1="30.8378" x2="13.2757" y2="40.4929" gradientUnits="userSpaceOnUse">
<stop stop-color="#99DD49"/>
<stop offset="1" stop-color="#80C430"/>
</linearGradient>
<linearGradient id="paint2_linear_2_961" x1="27.7576" y1="30.8378" x2="27.7576" y2="40.4929" gradientUnits="userSpaceOnUse">
<stop stop-color="#99DD49"/>
<stop offset="1" stop-color="#80C430"/>
</linearGradient>
<linearGradient id="paint3_linear_2_961" x1="42.242" y1="30.8378" x2="42.242" y2="40.4929" gradientUnits="userSpaceOnUse">
<stop stop-color="#99DD49"/>
<stop offset="1" stop-color="#80C430"/>
</linearGradient>
<linearGradient id="paint4_linear_2_961" x1="56.7239" y1="30.8378" x2="56.7239" y2="40.4929" gradientUnits="userSpaceOnUse">
<stop stop-color="#99DD49"/>
<stop offset="1" stop-color="#80C430"/>
</linearGradient>
<clipPath id="clip0_2_961">
<rect width="70" height="71" fill="white"/>
</clipPath>
</defs>
</svg>
