<svg width="71" height="71" viewBox="0 0 71 71" fill="none" xmlns="http://www.w3.org/2000/svg">
<g clip-path="url(#clip0_2_967)">
<path d="M63.4208 57.3838C68.1625 51.3491 71 43.7531 71 35.5028C71 15.9267 55.0746 0 35.5 0C15.9254 0 0 15.9267 0 35.5028C0 55.0761 15.9254 71 35.5 71C46.7013 71 56.6999 65.7809 63.211 57.652C63.2974 57.5811 63.3889 57.5168 63.4725 57.4431L63.4208 57.3838ZM35.4999 3.61255C53.0832 3.61255 67.3876 17.9181 67.3876 35.5028C67.3876 42.8855 64.8575 49.6852 60.6283 55.096C59.1946 56.1836 57.445 56.7814 55.6368 56.7814C53.6297 56.7814 51.6928 56.0506 50.1826 54.7259L48.9915 53.6805L47.801 54.7259C46.2913 56.0518 44.354 56.7814 42.3469 56.7814C40.6028 56.7814 38.9126 56.2296 37.5088 55.2146V49.0287C46.898 48.1167 54.2639 40.1794 54.2639 30.5546C54.2639 20.3186 45.9384 11.9926 35.702 11.9926C25.4679 11.9926 17.14 20.3188 17.14 30.5546C17.14 40.1806 24.505 48.1167 33.8951 49.0287V55.2146C32.4907 56.229 30.8011 56.7814 29.056 56.7814C27.0498 56.7814 25.1125 56.0517 23.603 54.7259L22.4119 53.6805L21.2208 54.7259C19.7101 56.0507 17.7732 56.7814 15.7666 56.7814C13.7595 56.7814 11.8226 56.0517 10.3125 54.7259L10.1912 54.8656C6.06991 49.493 3.61238 42.7808 3.61238 35.5022C3.61238 17.9174 17.9166 3.61255 35.4999 3.61255ZM37.5087 36.4673L44.0713 29.9036L41.5173 27.3494L37.5091 31.358V24.9577H33.8964V37.724L27.6285 31.455L25.0734 34.0092L33.8964 42.8329V45.392C26.5021 44.4967 20.7527 38.1872 20.7527 30.5546C20.7527 22.311 27.4589 15.6052 35.7024 15.6052C43.9448 15.6052 50.6521 22.3113 50.6521 30.5546C50.6521 38.1866 44.9027 44.4966 37.5084 45.392L37.5087 36.4673ZM33.8954 67.3449C26.9931 67.0019 20.6653 64.4483 15.5973 60.3845C15.6543 60.3861 15.7108 60.3922 15.7673 60.3922C18.1467 60.3922 20.458 59.6792 22.4125 58.3594C24.3664 59.6781 26.6771 60.3922 29.0567 60.3922C30.7386 60.3922 32.3834 60.0293 33.8959 59.3539L33.8954 67.3449ZM37.5087 59.3545C39.0199 60.0298 40.6648 60.3927 42.3467 60.3927C44.7261 60.3927 47.0374 59.6797 48.9909 58.3599C50.8817 59.6354 53.107 60.3395 55.404 60.3839C50.4347 64.3681 44.2525 66.8939 37.5087 67.3161V59.3545Z" fill="url(#paint0_linear_2_967)"/>
</g>
<defs>
<linearGradient id="paint0_linear_2_967" x1="35.5" y1="0" x2="35.5" y2="71" gradientUnits="userSpaceOnUse">
<stop stop-color="#99DD49"/>
<stop offset="1" stop-color="#80C430"/>
</linearGradient>
<clipPath id="clip0_2_967">
<rect width="71" height="71" fill="white"/>
</clipPath>
</defs>
</svg>
