<svg width="75" height="83" viewBox="0 0 75 83" fill="none" xmlns="http://www.w3.org/2000/svg">
<g clip-path="url(#clip0_2_948)">
<path d="M73.7276 18.0893C72.8374 17.8766 71.9435 18.4253 71.7303 19.3155L71.6014 19.8555C71.3888 20.7457 71.9374 21.6397 72.8276 21.8529C72.9571 21.8837 73.0871 21.8985 73.2148 21.8985C73.9638 21.8985 74.6431 21.3868 74.825 20.6267L74.9544 20.0866C75.1665 19.1965 74.6171 18.3025 73.7276 18.0893Z" fill="url(#paint0_linear_2_948)"/>
<path d="M72.3465 23.8592C71.4563 23.6452 70.5624 24.1951 70.3491 25.0853L57.5011 78.78H9.33483C8.41997 78.78 7.67773 79.5222 7.67773 80.4371C7.67773 81.352 8.41997 82.0942 9.33483 82.0942H58.8094C59.5757 82.0942 60.2427 81.5684 60.4209 80.8224L73.5735 25.8557C73.7862 24.9661 73.2367 24.0724 72.3465 23.8592Z" fill="url(#paint1_linear_2_948)"/>
<path d="M19.272 35.6387C19.5414 35.6387 19.8053 35.6209 20.0568 35.5857C20.963 35.4594 21.5956 34.6216 21.4686 33.7153C21.3422 32.809 20.5044 32.1759 19.5981 32.3035C19.4982 32.3177 19.3879 32.3245 19.2714 32.3245C18.3565 32.3245 17.6143 33.0667 17.6143 33.9816C17.6143 34.8964 18.3565 35.6387 19.272 35.6387Z" fill="url(#paint2_linear_2_948)"/>
<path d="M14.6072 44.2146C14.6072 45.1295 15.3495 45.8717 16.2643 45.8717C17.959 45.8717 18.9621 45.1658 19.6944 44.6498C20.3688 44.1757 20.8558 43.8324 22.0636 43.8324C23.3705 43.8324 23.9758 44.2349 24.7422 44.7441C25.4974 45.246 26.4381 45.8711 27.8628 45.8711C29.5574 45.8711 30.5605 45.1652 31.2928 44.6498C31.9666 44.1751 32.4543 43.8324 33.662 43.8324C34.9689 43.8324 35.5743 44.2349 36.3406 44.7441C37.0958 45.2459 38.0366 45.871 39.4612 45.871C41.1558 45.871 42.1589 45.1652 42.8912 44.6492C43.565 44.1751 44.0521 43.8317 45.2604 43.8317C46.1753 43.8317 46.9175 43.0895 46.9175 42.1746C46.9175 41.2598 46.1753 40.5175 45.2604 40.5175C43.0028 40.5175 41.8359 41.3393 40.9838 41.9385C40.3815 42.3626 40.1066 42.5562 39.4611 42.5562C39.0697 42.5562 38.8268 42.4163 38.1751 41.9829C37.2443 41.364 35.9699 40.5169 33.6618 40.5169C31.4042 40.5169 30.2373 41.3387 29.3846 41.9379C28.7823 42.362 28.5074 42.5556 27.8619 42.5556C27.4705 42.5556 27.2276 42.4157 26.576 41.9823C25.6451 41.3633 24.3708 40.5163 22.0627 40.5163C19.8051 40.5163 18.6382 41.3381 17.7861 41.9373C17.1838 42.3614 16.9088 42.555 16.2634 42.555C15.3485 42.5575 14.6072 43.2991 14.6072 44.2146Z" fill="url(#paint3_linear_2_948)"/>
<path d="M51.0603 45.8717C51.9751 45.8717 52.7173 45.1295 52.7173 44.2146C52.7173 43.2998 51.9751 42.5575 51.0603 42.5575C50.9752 42.5575 50.8969 42.5507 50.8211 42.5359C49.9222 42.3627 49.0536 42.9508 48.8804 43.849C48.7071 44.7479 49.2953 45.6164 50.1941 45.7897C50.474 45.844 50.7657 45.8717 51.0603 45.8717Z" fill="url(#paint4_linear_2_948)"/>
<path d="M13.5828 52.7716C13.483 52.7857 13.3732 52.7925 13.2567 52.7925C12.3418 52.7925 11.5996 53.5347 11.5996 54.4496C11.5996 55.3645 12.3418 56.1067 13.2567 56.1067C13.5249 56.1067 13.7881 56.0888 14.0384 56.0543C14.9452 55.9285 15.5777 55.0914 15.452 54.1851C15.3262 53.2783 14.489 52.644 13.5828 52.7716Z" fill="url(#paint5_linear_2_948)"/>
<path d="M49.7096 54.4492C49.7096 53.5343 48.9674 52.7921 48.0525 52.7921C47.6611 52.7921 47.4182 52.6521 46.7666 52.2188C45.8357 51.5998 44.5607 50.7528 42.2533 50.7528C39.9957 50.7528 38.8287 51.5745 37.9767 52.1737C37.3744 52.5979 37.0994 52.7915 36.454 52.7915C36.0625 52.7915 35.8196 52.6515 35.168 52.2181C34.2371 51.5992 32.9628 50.7521 30.6547 50.7521C28.3971 50.7521 27.2302 51.5739 26.3775 52.1731C25.7752 52.5973 25.5003 52.7908 24.8548 52.7908C24.4633 52.7908 24.2205 52.6509 23.5688 52.2175C22.638 51.5986 21.3636 50.7515 19.0555 50.7515C18.1407 50.7515 17.3984 51.4938 17.3984 52.4086C17.3984 53.3235 18.1407 54.0657 19.0555 54.0657C20.3625 54.0657 20.9678 54.4683 21.7342 54.9775C22.4894 55.4793 23.4301 56.1044 24.8547 56.1044C26.5494 56.1044 27.5525 55.3985 28.2848 54.8832C28.9592 54.4085 29.4462 54.0657 30.654 54.0657C31.9609 54.0657 32.5662 54.4683 33.3326 54.9775C34.0884 55.4793 35.0285 56.1044 36.4532 56.1044C38.1478 56.1044 39.1509 55.3985 39.8832 54.8825C40.5576 54.4085 41.0446 54.0651 42.2524 54.0651C43.5593 54.0651 44.1647 54.4676 44.931 54.9768C45.6868 55.4787 46.627 56.1038 48.0516 56.1038C48.9671 56.1062 49.7096 55.364 49.7096 54.4492Z" fill="url(#paint6_linear_2_948)"/>
<path d="M8.59114 64.6821C8.59114 65.597 9.33338 66.3392 10.2482 66.3392C11.9429 66.3392 12.946 65.6333 13.6783 65.1174C14.3527 64.6433 14.8397 64.2999 16.0474 64.2999C17.3544 64.2999 17.9597 64.7025 18.7261 65.2117C19.4813 65.7135 20.422 66.3386 21.8467 66.3386C23.5413 66.3386 24.5444 65.6327 25.2767 65.1173C25.9511 64.6426 26.4381 64.2999 27.6459 64.2999C28.9528 64.2999 29.5582 64.7024 30.3245 65.2116C31.0797 65.7135 32.0204 66.3386 33.4451 66.3386C35.1397 66.3386 36.1428 65.6327 36.8751 65.1167C37.5489 64.6426 38.0359 64.2993 39.2443 64.2993C40.1591 64.2993 40.9014 63.557 40.9014 62.6422C40.9014 61.7273 40.1591 60.9851 39.2443 60.9851C36.9867 60.9851 35.8198 61.8068 34.9677 62.406C34.3654 62.8302 34.0905 63.0238 33.445 63.0238C33.0535 63.0238 32.8107 62.8838 32.159 62.4504C31.2282 61.8315 29.9538 60.9844 27.6457 60.9844C25.3881 60.9844 24.2212 61.8062 23.3685 62.4054C22.7662 62.8296 22.4913 63.0231 21.8458 63.0231C21.4544 63.0231 21.2115 62.8832 20.5599 62.4498C19.629 61.8309 18.3547 60.9838 16.0466 60.9838C13.789 60.9838 12.622 61.8056 11.77 62.4048C11.1677 62.8289 10.8927 63.0225 10.2473 63.0225C9.33243 63.025 8.59114 63.7666 8.59114 64.6821Z" fill="url(#paint7_linear_2_948)"/>
<path d="M44.8045 63.0029C43.9056 62.8291 43.037 63.4178 42.8638 64.316C42.6905 65.2148 43.2787 66.0834 44.1769 66.2567C44.458 66.311 44.7496 66.3381 45.0436 66.3381C45.9585 66.3381 46.7007 65.5958 46.7007 64.681C46.7007 63.7661 45.9585 63.0239 45.0436 63.0239C44.9586 63.0251 44.8804 63.0177 44.8045 63.0029Z" fill="url(#paint8_linear_2_948)"/>
<path d="M52.7899 72.7624C52.7899 71.8476 52.0476 71.1053 51.1328 71.1053H3.75872L17.4987 13.683H40.8685V31.5449C39.9648 30.9599 38.7293 30.286 36.6702 30.286C34.4126 30.286 33.2457 31.1072 32.3937 31.707C31.7914 32.1312 31.5164 32.3248 30.871 32.3248C30.4795 32.3248 30.236 32.1848 29.585 31.752C28.6541 31.1331 27.3798 30.286 25.0717 30.286C24.1568 30.286 23.4146 31.0283 23.4146 31.9431C23.4146 32.858 24.1568 33.6002 25.0717 33.6002C26.3786 33.6002 26.984 34.0028 27.7504 34.512C28.5056 35.0138 29.4463 35.6389 30.8709 35.6389C32.5656 35.6389 33.5687 34.9331 34.3009 34.4177C34.9754 33.943 35.4624 33.6002 36.6701 33.6002C37.9771 33.6002 38.5824 34.0028 39.3488 34.512C40.1046 35.0138 41.0447 35.6389 42.4693 35.6389C42.4823 35.6389 42.494 35.6383 42.5063 35.6377C42.5131 35.6377 42.5187 35.6389 42.5254 35.6389C42.5458 35.6389 42.5649 35.6364 42.5852 35.6358C44.2084 35.6044 45.1843 34.9207 45.8994 34.4177C46.5738 33.943 47.0609 33.6002 48.2686 33.6002C49.5755 33.6002 50.1809 34.0028 50.9473 34.512C51.7031 35.0138 52.6432 35.6389 54.0678 35.6389C54.9827 35.6389 55.7249 34.8967 55.7249 33.9818C55.7249 33.0669 54.9827 32.3247 54.0678 32.3247C53.6763 32.3247 53.4328 32.1848 52.7818 31.752C52.5778 31.6164 52.3565 31.4703 52.1123 31.3242V13.6832H63.5653L51.1474 65.5803C50.9347 66.4705 51.4834 67.3644 52.3736 67.5777C52.5031 67.6085 52.6331 67.6239 52.7608 67.6239C53.5098 67.6239 54.1891 67.1122 54.371 66.3521L67.2782 12.4128C67.3959 11.9196 67.2819 11.3987 66.9675 11.0004C66.6531 10.6022 66.1741 10.3698 65.6667 10.3698L52.1121 10.3692V5.62166C52.1121 4.34925 53.1472 3.31419 54.4196 3.31419C55.692 3.31419 56.7271 4.34927 56.7271 5.62166C56.7271 6.53652 57.4693 7.27876 58.3842 7.27876C59.299 7.27876 60.0413 6.53652 60.0413 5.62166C60.0413 2.52131 57.5193 0 54.4196 0C52.8741 0 51.4722 0.626967 50.455 1.64053C49.4378 0.627645 48.036 0 46.4905 0C43.3901 0 40.8688 2.52194 40.8688 5.62166V10.3685L16.1907 10.3692C15.4244 10.3692 14.7574 10.895 14.5792 11.6403L0.0456516 72.3769C-0.0727125 72.8701 0.0419532 73.3904 0.356366 73.7886C0.670772 74.1869 1.14977 74.4193 1.65714 74.4193H51.1317C52.0472 74.4193 52.7888 73.6771 52.7888 72.7622L52.7899 72.7624ZM44.1832 24.4099H48.7988V26.382H44.1832V24.4099ZM48.7988 21.0957H44.1832V19.1236H48.7988V21.0957ZM48.2692 30.2855C46.175 30.2855 45.0197 30.992 44.1831 31.5733V29.6967H48.7987V30.3027C48.6279 30.2922 48.453 30.2855 48.2692 30.2855ZM44.1831 5.62002C44.1831 4.3476 45.2182 3.31255 46.4906 3.31255C47.763 3.31255 48.7981 4.34762 48.7981 5.62002V15.8086H44.1825L44.1831 5.62002Z" fill="url(#paint9_linear_2_948)"/>
</g>
<defs>
<linearGradient id="paint0_linear_2_948" x1="73.2778" y1="18.0435" x2="73.2778" y2="21.8985" gradientUnits="userSpaceOnUse">
<stop stop-color="#99DD49"/>
<stop offset="1" stop-color="#80C430"/>
</linearGradient>
<linearGradient id="paint1_linear_2_948" x1="40.6485" y1="23.813" x2="40.6485" y2="82.0942" gradientUnits="userSpaceOnUse">
<stop stop-color="#99DD49"/>
<stop offset="1" stop-color="#80C430"/>
</linearGradient>
<linearGradient id="paint2_linear_2_948" x1="19.5496" y1="32.2871" x2="19.5496" y2="35.6387" gradientUnits="userSpaceOnUse">
<stop stop-color="#99DD49"/>
<stop offset="1" stop-color="#80C430"/>
</linearGradient>
<linearGradient id="paint3_linear_2_948" x1="30.7622" y1="40.5163" x2="30.7622" y2="45.8717" gradientUnits="userSpaceOnUse">
<stop stop-color="#99DD49"/>
<stop offset="1" stop-color="#80C430"/>
</linearGradient>
<linearGradient id="paint4_linear_2_948" x1="50.7837" y1="42.5056" x2="50.7837" y2="45.8717" gradientUnits="userSpaceOnUse">
<stop stop-color="#99DD49"/>
<stop offset="1" stop-color="#80C430"/>
</linearGradient>
<linearGradient id="paint5_linear_2_948" x1="13.5338" y1="52.7552" x2="13.5338" y2="56.1067" gradientUnits="userSpaceOnUse">
<stop stop-color="#99DD49"/>
<stop offset="1" stop-color="#80C430"/>
</linearGradient>
<linearGradient id="paint6_linear_2_948" x1="33.554" y1="50.7515" x2="33.554" y2="56.1044" gradientUnits="userSpaceOnUse">
<stop stop-color="#99DD49"/>
<stop offset="1" stop-color="#80C430"/>
</linearGradient>
<linearGradient id="paint7_linear_2_948" x1="24.7461" y1="60.9838" x2="24.7461" y2="66.3392" gradientUnits="userSpaceOnUse">
<stop stop-color="#99DD49"/>
<stop offset="1" stop-color="#80C430"/>
</linearGradient>
<linearGradient id="paint8_linear_2_948" x1="44.7671" y1="62.9725" x2="44.7671" y2="66.3381" gradientUnits="userSpaceOnUse">
<stop stop-color="#99DD49"/>
<stop offset="1" stop-color="#80C430"/>
</linearGradient>
<linearGradient id="paint9_linear_2_948" x1="33.6618" y1="0" x2="33.6618" y2="74.4193" gradientUnits="userSpaceOnUse">
<stop stop-color="#99DD49"/>
<stop offset="1" stop-color="#80C430"/>
</linearGradient>
<clipPath id="clip0_2_948">
<rect width="75" height="83" fill="white"/>
</clipPath>
</defs>
</svg>
