<svg width="75" height="57" viewBox="0 0 75 57" fill="none" xmlns="http://www.w3.org/2000/svg">
<g clip-path="url(#clip0_2_921)">
<path d="M9.37444 19.9216H11.7182C12.0289 19.9216 12.3271 19.7982 12.5468 19.5784C12.7665 19.3587 12.89 19.0605 12.89 18.7498V16.4061C12.8879 14.8528 12.2701 13.3634 11.172 12.2648C10.0734 11.1667 8.584 10.5489 7.03072 10.5468H4.687C4.03986 10.5468 3.51514 11.0715 3.51514 11.7186V14.0623C3.51723 15.6156 4.13507 17.105 5.23315 18.2036C6.33177 19.3017 7.82115 19.9195 9.37444 19.9216ZM5.85886 12.8905H7.03072C7.96297 12.8905 8.85761 13.2609 9.51666 13.92C10.1757 14.5792 10.5462 15.4739 10.5462 16.406V17.5778H9.37437C8.44212 17.5778 7.54747 17.2075 6.88842 16.5483C6.22936 15.8891 5.85886 14.9945 5.85886 14.0623V12.8905Z" fill="url(#paint0_linear_2_921)"/>
<path d="M14.3782 12.5196C14.5995 12.7571 14.9097 12.892 15.2346 12.892C15.5595 12.892 15.8697 12.7571 16.091 12.5196L17.38 11.1495C18.2642 10.1817 18.7544 8.91878 18.7544 7.60831C18.7544 6.29784 18.2642 5.03491 17.38 4.06715L16.091 2.69494C15.8639 2.46737 15.5558 2.33972 15.2346 2.33972C14.9134 2.33972 14.6052 2.46737 14.3782 2.69494L13.0892 4.06501C12.205 5.03232 11.7153 6.29516 11.7153 7.60577C11.7153 8.91573 12.205 10.1792 13.0892 11.1465L14.3782 12.5196ZM14.8072 5.67254L15.2346 5.21636L15.6625 5.67202C16.1444 6.20041 16.4117 6.89045 16.4117 7.60618C16.4117 8.32132 16.1444 9.0108 15.6625 9.53981L15.2346 10.0002L14.8067 9.54557C14.3233 9.01667 14.0554 8.32558 14.0554 7.60886C14.0554 6.89266 14.3238 6.20142 14.8072 5.67254Z" fill="url(#paint1_linear_2_921)"/>
<path d="M22.2651 7.03118H23.8272C24.9667 7.03014 26.059 6.57657 26.8647 5.77144C27.6698 4.96579 28.1234 3.87343 28.1244 2.73398V1.17186C28.1244 0.861109 28.001 0.562908 27.7813 0.343187C27.5615 0.123467 27.2633 0 26.9526 0H25.3905C24.251 0.00104624 23.1587 0.454614 22.353 1.25974C21.5479 2.06539 21.0943 3.15775 21.0933 4.2972V5.85932C21.0933 6.17008 21.2167 6.46828 21.4364 6.688C21.6562 6.90772 21.9544 7.03118 22.2651 7.03118ZM23.437 4.2972C23.4375 3.77928 23.6436 3.28281 24.0098 2.91655C24.376 2.55029 24.8725 2.34423 25.3905 2.34371H25.7808V2.73398C25.7802 3.2519 25.5741 3.74837 25.2079 4.11463C24.8417 4.4809 24.3452 4.68696 23.8273 4.68748H23.437V4.2972Z" fill="url(#paint2_linear_2_921)"/>
<path d="M17.8844 13.682L19.0562 14.9642C19.8703 15.8818 21.0379 16.407 22.2647 16.407C23.491 16.407 24.6592 15.8818 25.4732 14.9642L26.6451 13.682C27.0547 13.2342 27.0547 12.5478 26.6451 12.1L25.4732 10.8178C24.6592 9.90018 23.4909 9.375 22.2647 9.375C21.0379 9.375 19.8702 9.90025 19.0562 10.8178L17.8844 12.1C17.4747 12.5479 17.4747 13.2342 17.8844 13.682ZM20.7868 12.3997C21.1645 11.9812 21.7018 11.7427 22.2658 11.7427C22.8298 11.7427 23.367 11.9812 23.7447 12.3997L24.1947 12.891L23.7447 13.3822C23.367 13.8007 22.8298 14.0393 22.2658 14.0393C21.7018 14.0393 21.1645 13.8007 20.7868 13.3822L20.3369 12.891L20.7868 12.3997Z" fill="url(#paint3_linear_2_921)"/>
<path d="M12.89 37.4995C12.89 37.1887 12.7666 36.8905 12.5468 36.6708C12.3271 36.4511 12.0289 36.3276 11.7182 36.3276H9.37444C7.82115 36.3297 6.33175 36.9476 5.23315 38.0457C4.13506 39.1443 3.51728 40.6337 3.51514 42.1869V44.5307C3.51514 44.8414 3.6386 45.1396 3.85832 45.3593C4.07805 45.579 4.37625 45.7025 4.687 45.7025H7.03072C8.584 45.7004 10.0734 45.0826 11.172 43.9845C12.2701 42.8859 12.8879 41.3965 12.89 39.8432V37.4995ZM10.5463 39.8432C10.5463 40.7755 10.1759 41.6701 9.51673 42.3292C8.85756 42.9882 7.96291 43.3587 7.03078 43.3587H5.85892V42.1869C5.85892 41.2546 6.22931 40.36 6.88849 39.7009C7.54766 39.0419 8.4423 38.6714 9.37444 38.6714H10.5463V39.8432Z" fill="url(#paint4_linear_2_921)"/>
<path d="M16.0901 43.7097C15.8636 43.4816 15.5554 43.3535 15.2337 43.3535C14.912 43.3535 14.6038 43.4816 14.3773 43.7097L13.0883 45.0783C12.2036 46.0456 11.7134 47.3085 11.7134 48.6185C11.7134 49.929 12.2036 51.1919 13.0883 52.1588L14.3773 53.5288C14.5986 53.7663 14.9088 53.9008 15.2337 53.9008C15.5586 53.9008 15.8688 53.7663 16.0901 53.5288L17.3792 52.1588C18.2638 51.192 18.754 49.9292 18.754 48.6185C18.754 47.3086 18.2638 46.0457 17.3792 45.0783L16.0901 43.7097ZM15.6611 50.5546L15.2337 51.015L14.8058 50.5593C14.3239 50.0304 14.0566 49.3409 14.0566 48.6257C14.0566 47.91 14.3239 47.2205 14.8058 46.692L15.2337 46.2348L15.6616 46.692C16.1435 47.2204 16.4108 47.9099 16.4108 48.6257C16.4108 49.3408 16.1435 50.0303 15.6616 50.5593L15.6611 50.5546Z" fill="url(#paint5_linear_2_921)"/>
<path d="M25.4742 45.432L26.646 44.1498C27.0557 43.7019 27.0557 43.0156 26.646 42.5678L25.4742 41.2856C24.6602 40.368 23.4925 39.8428 22.2657 39.8428C21.0389 39.8428 19.8712 40.368 19.0572 41.2856L17.8853 42.5678C17.4757 43.0156 17.4757 43.702 17.8853 44.1498L19.0572 45.432C19.8712 46.3496 21.0389 46.8748 22.2657 46.8748C23.4925 46.8748 24.6602 46.3495 25.4742 45.432ZM20.3369 43.3588L20.7868 42.8676C21.1645 42.449 21.7018 42.2105 22.2657 42.2105C22.8297 42.2105 23.367 42.449 23.7447 42.8676L24.1946 43.3588L23.7447 43.85C23.367 44.2686 22.8297 44.5071 22.2657 44.5071C21.7018 44.5071 21.1645 44.2686 20.7868 43.85L20.3369 43.3588Z" fill="url(#paint6_linear_2_921)"/>
<path d="M23.8268 49.2181H22.2646C21.6175 49.2181 21.0928 49.7429 21.0928 50.39V51.9521C21.0938 53.0915 21.5474 54.1839 22.3525 54.9896C23.1582 55.7947 24.2505 56.2483 25.39 56.2493H26.9521C27.2628 56.2493 27.561 56.1259 27.7808 55.9061C28.0005 55.6864 28.124 55.3882 28.124 55.0775V53.5153C28.1229 52.3759 27.6693 51.2836 26.8642 50.4779C26.0586 49.6728 24.9662 49.2192 23.8268 49.2181ZM25.7802 53.9056H25.3899C24.872 53.9051 24.3755 53.6989 24.0093 53.3327C23.643 52.9665 23.437 52.4701 23.4364 51.9521V51.5618H23.8267C24.3446 51.5623 24.8411 51.7685 25.2074 52.1346C25.5736 52.5008 25.7797 52.9973 25.7802 53.5153V53.9056Z" fill="url(#paint7_linear_2_921)"/>
<path d="M36.3276 25.781C36.6384 25.781 36.9366 25.6575 37.1563 25.4378C37.376 25.218 37.4995 24.9198 37.4995 24.6091C37.4995 23.962 38.0242 23.4372 38.6713 23.4372C39.3185 23.4372 39.8432 23.962 39.8432 24.6091C39.8432 25.2562 40.3679 25.781 41.0151 25.781C41.6622 25.781 42.1869 25.2562 42.1869 24.6091C42.1869 23.353 41.5168 22.1927 40.4291 21.5644C39.3415 20.9366 38.0012 20.9366 36.9136 21.5644C35.8259 22.1927 35.1558 23.353 35.1558 24.6091C35.1558 24.9198 35.2792 25.218 35.4989 25.4378C35.7187 25.6575 36.0169 25.781 36.3276 25.781Z" fill="url(#paint8_linear_2_921)"/>
<path d="M36.3278 37.4995C39.449 37.4943 42.4623 36.3575 44.8097 34.3004C47.157 32.2429 48.679 29.4042 49.0927 26.3104L59.6828 7.32622C59.7477 8.38613 59.7749 9.457 59.7649 10.5383C59.7539 12.2265 59.6394 13.9126 59.4228 15.5867C59.3396 16.2286 59.7926 16.8166 60.4346 16.8998C61.0765 16.983 61.6645 16.5299 61.7477 15.888C61.9758 14.1198 62.0961 12.34 62.1086 10.5571C62.1343 8.14425 61.9731 5.73357 61.6268 3.34538C61.5536 2.84944 61.1727 2.45498 60.6794 2.36448C60.1861 2.27345 59.6901 2.50677 59.4447 2.94465L48.9121 21.8216C48.0211 17.7991 45.2599 14.4452 41.4827 12.7983C41.1976 12.6722 40.8738 12.6649 40.5829 12.7779C40.2926 12.8909 40.0587 13.1153 39.9342 13.4015C39.8097 13.6871 39.8039 14.011 39.9185 14.3008C40.0331 14.5906 40.2586 14.8234 40.5452 14.9464C43.5251 16.2506 45.7371 18.8574 46.5385 22.0099C47.3399 25.163 46.6415 28.509 44.6457 31.0783C42.6504 33.6475 39.5806 35.152 36.3276 35.1551C35.6805 35.1551 35.1558 35.6798 35.1558 36.327C35.1558 36.9741 35.6807 37.4995 36.3278 37.4995Z" fill="url(#paint9_linear_2_921)"/>
<path d="M72.6352 40.9173C71.3828 39.9406 69.7448 39.6095 68.2115 40.0217C65.8148 40.5825 63.3467 40.7751 60.8921 40.5925C60.9052 40.3649 60.9319 40.1399 60.9319 39.9129C67.0093 37.6523 70.7755 34.6244 72.1394 30.8827C73.0183 28.3862 72.8148 25.636 71.5781 23.2961C72.4779 21.5739 73.2082 19.7684 73.7591 17.9055C74.6918 14.7431 75.1035 11.4504 74.978 8.1555C74.9602 7.68047 74.6573 7.263 74.2111 7.09926C73.7643 6.93499 73.2631 7.05741 72.9424 7.40792L48.3534 34.3607C48.1316 34.5877 48.0118 34.8954 48.0207 35.2129C48.0301 35.5299 48.1677 35.8302 48.4021 36.0442C48.6365 36.2582 48.9477 36.368 49.2648 36.3487C49.5813 36.3288 49.8769 36.1818 50.083 35.9406L72.5827 11.274C72.4446 13.296 72.0841 15.2965 71.5082 17.24C69.7295 23.0559 66.1867 28.1749 61.3706 31.8889C60.8746 32.2923 60.7935 33.0194 61.189 33.5222C61.584 34.0249 62.3096 34.1175 62.8186 33.7309C65.6505 31.5117 68.1019 28.8472 70.0773 25.8407C70.4823 27.2464 70.4289 28.7448 69.9251 30.1181C68.6115 33.6713 64.1745 36.6465 57.0922 38.7229C56.7935 38.8102 56.5424 39.0127 56.3928 39.2853C56.2437 39.5584 56.2092 39.879 56.2965 40.1772C56.4781 40.7987 57.1294 41.155 57.7503 40.973C58.0208 40.8934 58.2787 40.8103 58.5423 40.7281C58.4382 42.2771 58.0213 43.789 57.3156 45.1718C57.02 45.7473 57.247 46.4541 57.8225 46.7496C58.3985 47.0457 59.1047 46.8187 59.4003 46.2427C59.935 45.1917 60.3331 44.0763 60.5852 42.9244C63.3491 43.1415 66.1295 42.9254 68.827 42.2846C69.6561 42.0596 70.5428 42.2438 71.2141 42.78C72.1495 43.5417 72.6815 44.6921 72.6554 45.8985V50.192C72.6753 51.2959 72.2374 52.359 71.4459 53.129C70.8929 53.6653 70.1401 53.9446 69.3705 53.9002C69.0075 53.8745 68.591 53.8322 68.1176 53.7699C63.9905 53.1923 60.1191 51.4335 56.9687 48.7063L56.4414 48.2951C55.9852 47.9404 55.3386 47.9707 54.9179 48.3678C52.457 50.6917 49.111 51.8373 45.7413 51.5109C42.3722 51.1839 39.3092 49.4162 37.34 46.6624C36.3209 45.1123 35.6723 43.3477 35.4442 41.5062C34.9126 38.4588 32.91 35.8713 30.0934 34.5922C28.8122 34.0842 27.678 33.265 26.7924 32.2087C26.682 32.0612 26.5957 31.9299 26.5015 31.7938C27.6451 30.7549 28.2394 29.2419 28.1081 27.7022C27.9762 26.1632 27.1345 24.7726 25.8313 23.9424C25.9495 22.0114 26.5983 20.1501 27.7058 18.5633C28.8133 16.9766 30.3371 15.7262 32.1091 14.9495C32.3958 14.8265 32.6213 14.5942 32.7359 14.3039C32.8504 14.0141 32.8447 13.6902 32.7202 13.4046C32.5951 13.1184 32.3618 12.8945 32.0709 12.781C31.7806 12.668 31.4568 12.6753 31.1716 12.8019C29.0016 13.7483 27.1344 15.2749 25.7753 17.2132C24.4166 19.1521 23.6179 21.4278 23.4678 23.7902L14.8232 27.0327C14.3654 27.2043 14.062 27.6417 14.062 28.1303C14.062 28.6189 14.3654 29.0563 14.8232 29.2279L24.1981 32.7435C24.2399 32.7529 24.2828 32.7607 24.3257 32.7654C24.5005 33.0359 24.6951 33.3174 24.9221 33.6234C26.0396 34.9967 27.4861 36.0654 29.1267 36.7298C31.2356 37.6877 32.7349 39.6255 33.1325 41.9069C33.4155 44.0994 34.2039 46.1962 35.4348 48.0324C37.6965 51.1876 41.1618 53.2687 45.0101 53.7819C48.8583 54.2951 52.7474 53.1955 55.7572 50.743C59.1943 53.6251 63.3753 55.4785 67.8194 56.0901C68.342 56.1571 68.8014 56.2073 69.2031 56.2319C69.3203 56.2413 69.4375 56.2461 69.5631 56.2461C70.8589 56.2377 72.103 55.7349 73.041 54.8398C74.3086 53.6282 75.0175 51.9458 74.9992 50.1922V45.8986C75.0243 43.9619 74.1507 42.1227 72.6352 40.9173ZM24.5394 25.8881C25.3116 26.3694 25.7814 27.2153 25.7814 28.1256C25.7814 29.0359 25.3116 29.8818 24.5394 30.3631L18.5723 28.1251L24.5394 25.8881Z" fill="url(#paint10_linear_2_921)"/>
<path d="M9.89439 30.7858L11.4576 28.8627C11.807 28.4327 11.807 27.8164 11.4576 27.3864L9.89439 25.4634C8.93127 24.2052 7.44393 23.4586 5.85984 23.4372C4.27575 23.4586 2.78836 24.2052 1.8253 25.4634L0.262102 27.3864C-0.0873673 27.8165 -0.0873673 28.4327 0.262102 28.8627L1.8253 30.7858C2.78842 32.0439 4.27575 32.7905 5.85984 32.8119C7.44393 32.7905 8.93132 32.0439 9.89439 30.7858ZM3.64375 29.3079L2.68168 28.1245L3.64375 26.9412C4.16168 26.2354 4.98463 25.819 5.85984 25.819C6.73505 25.819 7.55803 26.2354 8.07593 26.9412L9.038 28.1245L8.07593 29.3079C7.55801 30.0136 6.73505 30.43 5.85984 30.43C4.98463 30.43 4.16165 30.0136 3.64375 29.3079Z" fill="url(#paint11_linear_2_921)"/>
<path d="M37.4995 12.8905C37.4995 13.5376 36.9748 14.0623 36.3276 14.0623C35.6805 14.0623 35.1558 13.5376 35.1558 12.8905C35.1558 12.2434 35.6805 11.7186 36.3276 11.7186C36.9748 11.7186 37.4995 12.2434 37.4995 12.8905Z" fill="url(#paint12_linear_2_921)"/>
</g>
<defs>
<linearGradient id="paint0_linear_2_921" x1="8.20257" y1="10.5468" x2="8.20257" y2="19.9216" gradientUnits="userSpaceOnUse">
<stop stop-color="#99DD49"/>
<stop offset="1" stop-color="#80C430"/>
</linearGradient>
<linearGradient id="paint1_linear_2_921" x1="15.2349" y1="2.33972" x2="15.2349" y2="12.892" gradientUnits="userSpaceOnUse">
<stop stop-color="#99DD49"/>
<stop offset="1" stop-color="#80C430"/>
</linearGradient>
<linearGradient id="paint2_linear_2_921" x1="24.6088" y1="0" x2="24.6088" y2="7.03118" gradientUnits="userSpaceOnUse">
<stop stop-color="#99DD49"/>
<stop offset="1" stop-color="#80C430"/>
</linearGradient>
<linearGradient id="paint3_linear_2_921" x1="22.2647" y1="9.375" x2="22.2647" y2="16.407" gradientUnits="userSpaceOnUse">
<stop stop-color="#99DD49"/>
<stop offset="1" stop-color="#80C430"/>
</linearGradient>
<linearGradient id="paint4_linear_2_921" x1="8.20257" y1="36.3276" x2="8.20257" y2="45.7025" gradientUnits="userSpaceOnUse">
<stop stop-color="#99DD49"/>
<stop offset="1" stop-color="#80C430"/>
</linearGradient>
<linearGradient id="paint5_linear_2_921" x1="15.2337" y1="43.3535" x2="15.2337" y2="53.9008" gradientUnits="userSpaceOnUse">
<stop stop-color="#99DD49"/>
<stop offset="1" stop-color="#80C430"/>
</linearGradient>
<linearGradient id="paint6_linear_2_921" x1="22.2657" y1="39.8428" x2="22.2657" y2="46.8748" gradientUnits="userSpaceOnUse">
<stop stop-color="#99DD49"/>
<stop offset="1" stop-color="#80C430"/>
</linearGradient>
<linearGradient id="paint7_linear_2_921" x1="24.6084" y1="49.2181" x2="24.6084" y2="56.2493" gradientUnits="userSpaceOnUse">
<stop stop-color="#99DD49"/>
<stop offset="1" stop-color="#80C430"/>
</linearGradient>
<linearGradient id="paint8_linear_2_921" x1="38.6713" y1="21.0936" x2="38.6713" y2="25.781" gradientUnits="userSpaceOnUse">
<stop stop-color="#99DD49"/>
<stop offset="1" stop-color="#80C430"/>
</linearGradient>
<linearGradient id="paint9_linear_2_921" x1="48.6335" y1="2.34497" x2="48.6335" y2="37.4995" gradientUnits="userSpaceOnUse">
<stop stop-color="#99DD49"/>
<stop offset="1" stop-color="#80C430"/>
</linearGradient>
<linearGradient id="paint10_linear_2_921" x1="44.531" y1="7.02722" x2="44.531" y2="56.2461" gradientUnits="userSpaceOnUse">
<stop stop-color="#99DD49"/>
<stop offset="1" stop-color="#80C430"/>
</linearGradient>
<linearGradient id="paint11_linear_2_921" x1="5.85982" y1="23.4372" x2="5.85982" y2="32.8119" gradientUnits="userSpaceOnUse">
<stop stop-color="#99DD49"/>
<stop offset="1" stop-color="#80C430"/>
</linearGradient>
<linearGradient id="paint12_linear_2_921" x1="36.3276" y1="11.7186" x2="36.3276" y2="14.0623" gradientUnits="userSpaceOnUse">
<stop stop-color="#99DD49"/>
<stop offset="1" stop-color="#80C430"/>
</linearGradient>
<clipPath id="clip0_2_921">
<rect width="75" height="57" fill="white"/>
</clipPath>
</defs>
</svg>
